:SAMPLES-PER-SECOND 30
:FULLY-SPECIFIED
:DEGREES
128
root  -2.92869 40.8981 0.784948 172.696 -84.3702 -174.46
RightUpLeg  5.35379 -0.965758 -0.942255
RightLeg  -1.08075 -14.6295 -0.0660445
RightFoot  -1.31387 -0.292886 3.18296
RightToes  -3.13006e-008 1.75238e-005 3.56266e-009
Spine  -10.0054 -1.50408 -3.01549
Spine1  14.0693 -1.804 1.62456
HEad  -8.60093 -1.37951 8.24115
LeftShoulder1  2.98326 -6.20532 -24.5377
LeftArm  -12.0547 -15.8736 -53.1445
LeftForeArm  152.826 -75.9236 -138.636
LeftHand  -0.198808 -7.37746 2.17273
RightShoulder  2.90353 6.28012 23.52
RightArm  -12.5697 18.0024 41.1932
RightForeArm  138.852 74.7128 139.313
RightHand  -1.00799 8.71611 -8.64475
LeftUpLeg  5.80133 1.8482 2.52678
LeftLeg  -0.834611 16.9245 -0.449992
LeftFoot  -2.24101 0.27168 -3.26755
LeftToes  4.76866e-008 1.46233e-008 1.30548e-009
129
root  -2.96164 40.8916 0.778984 172.223 -84.2812 -174.229
RightUpLeg  5.60279 -0.953414 -0.893272
RightLeg  -0.931547 -14.5569 -0.145319
RightFoot  -1.41631 -0.291882 3.16512
RightToes  -3.13006e-008 1.75238e-005 3.56266e-009
Spine  -10.2838 -1.5028 -2.91194
Spine1  14.642 -1.78245 1.48492
HEad  -9.14805 -1.62912 8.29167
LeftShoulder1  3.06348 -6.37441 -24.8396
LeftArm  -12.0448 -14.5438 -53.1505
LeftForeArm  152.226 -75.6203 -139.417
LeftHand  -0.193912 -6.34638 2.25278
RightShoulder  2.9036 6.32327 23.382
RightArm  -12.3738 19.6311 40.3237
RightForeArm  140.18 75.1378 138.375
RightHand  -1.0318 9.10459 -8.612
LeftUpLeg  6.02394 1.94121 2.58411
LeftLeg  -0.599593 16.9257 -0.380284
LeftFoot  -2.43679 0.270497 -3.2521
LeftToes  4.76866e-008 1.46233e-008 1.30548e-009
130
root  -2.99572 40.8813 0.785103 172.539 -84.0112 -174.901
RightUpLeg  5.90295 -1.03889 -0.972903
RightLeg  -0.685051 -14.1586 -0.253982
RightFoot  -1.6125 -0.300528 3.29709
RightToes  -3.13006e-008 1.75238e-005 3.56266e-009
Spine  -10.7487 -1.50587 -2.85949
Spine1  15.6191 -1.78469 1.43622
HEad  -9.4531 -0.945557 8.4382
LeftShoulder1  2.98006 -6.20433 -24.5108
LeftArm  -11.7128 -14.521 -53.0346
LeftForeArm  148.541 -76.2219 -136.829
LeftHand  -0.153945 -6.61023 1.84104
RightShoulder  2.96518 6.57536 23.247
RightArm  -13.035 22.2525 37.9218
RightForeArm  140.466 76.386 134.462
RightHand  -0.841885 9.36703 -7.00536
LeftUpLeg  6.49453 1.97587 2.52745
LeftLeg  -0.573445 17.1302 -0.36738
LeftFoot  -2.57991 0.272526 -3.2865
LeftToes  4.76866e-008 1.46233e-008 1.30548e-009
131
root  -3.00258 40.876 0.794809 172.594 -83.8913 -175.334
RightUpLeg  6.22904 -1.18147 -1.07513
RightLeg  -0.507914 -13.8288 -0.299289
RightFoot  -1.72786 -0.306755 3.39165
RightToes  -3.13006e-008 1.75238e-005 3.56266e-009
Spine  -10.533 -1.34979 -3.16983
Spine1  15.7083 -1.78003 2.06248
HEad  -9.62446 -1.17875 8.24576
LeftShoulder1  2.86637 -6.04833 -23.7694
LeftArm  -10.1396 -16.9605 -52.2323
LeftForeArm  138.228 -77.7707 -128.423
LeftHand  -0.0569487 -6.91229 0.890112
RightShoulder  2.91976 6.64763 22.5482
RightArm  -15.6988 25.8071 33.7996
RightForeArm  142.302 78.2569 127.3
RightHand  -0.839446 10.4349 -6.52663
LeftUpLeg  6.93981 2.09675 2.5402
LeftLeg  -0.588944 17.1332 -0.467678
LeftFoot  -2.65567 0.266523 -3.19582
LeftToes  4.76866e-008 1.46233e-008 1.30548e-009
132
root  -3.00198 40.8745 0.80115 172.005 -84.2385 -174.92
RightUpLeg  6.47254 -1.27823 -1.10431
RightLeg  -0.531749 -14.036 -0.244342
RightFoot  -1.72546 -0.304432 3.35372
RightToes  -3.13006e-008 1.75238e-005 3.56266e-009
Spine  -10.0048 -1.0535 -3.24727
Spine1  15.0503 -1.53871 2.33233
HEad  -9.59491 -1.95622 9.01254
LeftShoulder1  2.62691 -5.67956 -22.3097
LeftArm  -6.92019 -22.5444 -51.8988
LeftForeArm  118.516 -79.7272 -109.566
LeftHand  -0.063903 -6.26632 0.973615
RightShoulder  2.74857 6.42005 21.4126
RightArm  -21.2328 28.7171 28.4036
RightForeArm  136.248 79.6506 117.403
RightHand  -1.03436 10.9583 -7.73197
LeftUpLeg  7.02737 2.11768 2.56313
LeftLeg  -0.469771 16.7688 -0.414189
LeftFoot  -2.69469 0.265269 -3.17912
LeftToes  4.76866e-008 1.46233e-008 1.30548e-009
133
root  -2.99418 40.8828 0.803619 170.352 -85.2538 -173.084
RightUpLeg  6.53267 -1.30275 -1.05279
RightLeg  -0.84459 -15.0139 -0.0857182
RightFoot  -1.55253 -0.307175 3.39464
RightToes  -3.13006e-008 1.75238e-005 3.56266e-009
Spine  -9.02983 -0.607626 -3.69075
Spine1  13.2782 -1.2463 3.18632
HEad  -8.90465 -3.07155 10.4061
LeftShoulder1  2.64558 -6.00683 -21.4651
LeftArm  -3.35879 -29.8453 -50.7212
LeftForeArm  95.3938 -80.3865 -83.9744
LeftHand  -0.04916 -6.48328 0.822978
RightShoulder  2.39172 5.90455 18.9555
RightArm  -30.7962 29.2278 22.4183
RightForeArm  120.759 80.2346 105.862
RightHand  -1.00184 10.5302 -7.68183
LeftUpLeg  6.59381 2.0762 2.64294
LeftLeg  -0.292115 15.7718 -0.352862
LeftFoot  -2.66709 0.26129 -3.12019
LeftToes  4.76866e-008 1.46233e-008 1.30548e-009
134
root  -2.9891 40.9007 0.805542 166.518 -86.9695 -168.641
RightUpLeg  6.25483 -1.46145 -1.15469
RightLeg  -1.26535 -16.5898 0.237731
RightFoot  -1.33208 -0.3093 3.4263
RightToes  -3.13006e-008 1.75238e-005 3.56266e-009
Spine  -7.96743 -0.624359 -3.83872
Spine1  11.1054 -1.16289 3.07285
HEad  -8.73235 -4.27781 12.5718
LeftShoulder1  2.50905 -6.03675 -19.8385
LeftArm  -0.137865 -36.7822 -50.56
LeftForeArm  83.273 -79.8892 -67.4222
LeftHand  0.0134256 -6.748 0.225989
RightShoulder  1.93498 4.72015 16.9163
RightArm  -42.0575 29.4702 17.4581
RightForeArm  100.435 80.5314 86.0413
RightHand  -1.00618 10.0114 -7.95045
LeftUpLeg  5.69879 1.86925 2.5861
LeftLeg  -0.340181 14.2825 -0.35389
LeftFoot  -2.40273 0.250168 -2.95039
LeftToes  4.76866e-008 1.46233e-008 1.30548e-009
135
root  -3.00076 40.9115 0.824093 -177.519 -88.7117 176.19
RightUpLeg  5.63659 -1.5709 -1.32977
RightLeg  -1.36955 -18.1386 0.372077
RightFoot  -1.27587 -0.315056 3.51359
RightToes  -3.13006e-008 1.75238e-005 3.56266e-009
Spine  -6.86115 -0.981615 -4.29982
Spine1  8.61532 -1.46729 3.22047
HEad  -8.72214 -4.79234 14.3432
LeftShoulder1  2.30199 -5.8183 -18.1074
LeftArm  1.84285 -41.6358 -50.3588
LeftForeArm  81.7823 -79.7312 -64.8881
LeftHand  0.0805435 -7.13616 -0.389847
RightShoulder  1.55898 3.72432 14.794
RightArm  -52.8641 28.5462 12.5472
RightForeArm  73.7508 78.977 58.4789
RightHand  -1.20076 9.65952 -9.61994
LeftUpLeg  4.71119 1.43197 2.28826
LeftLeg  -0.553881 13.1149 -0.301493
LeftFoot  -2.07716 0.243798 -2.85494
LeftToes  4.76866e-008 1.46233e-008 1.30548e-009
136
root  -3.01613 40.9226 0.828589 50.4963 -89.2877 -51.044
RightUpLeg  5.26774 -1.48245 -1.27056
RightLeg  -1.89229 -20.1826 0.577499
RightFoot  -1.06257 -0.314998 3.5092
RightToes  -3.13006e-008 1.75238e-005 3.56266e-009
Spine  -6.02233 -1.56538 -4.53482
Spine1  6.77868 -1.97949 3.09797
HEad  -9.36812 -4.84729 15.5723
LeftShoulder1  2.04471 -5.52642 -15.8911
LeftArm  2.65411 -44.5949 -50.4269
LeftForeArm  86.3798 -80.0744 -71.1421
LeftHand  0.0908774 -6.81911 -0.511766
RightShoulder  1.22216 2.64841 12.8473
RightArm  -62.5853 27.4882 8.36397
RightForeArm  49.6324 74.6094 37.7699
RightHand  -1.20719 8.87527 -10.1535
LeftUpLeg  3.73718 1.19693 2.20647
LeftLeg  -0.790311 11.5531 -0.331067
LeftFoot  -1.73052 0.225388 -2.57268
LeftToes  4.76866e-008 1.46233e-008 1.30548e-009
137
root  -3.04953 40.9335 0.847371 -0.822052 -88.2141 0.965591
RightUpLeg  4.7714 -1.6748 -1.5404
RightLeg  -2.03424 -21.1881 0.777324
RightFoot  -1.04415 -0.323453 3.63595
RightToes  -3.13006e-008 1.75238e-005 3.56266e-009
Spine  -4.38294 -2.04371 -4.89574
Spine1  4.16624 -2.50142 3.49219
HEad  -9.83568 -5.32477 15.8687
LeftShoulder1  1.89521 -4.98619 -15.527
LeftArm  3.12192 -45.2779 -49.8768
LeftForeArm  100.461 -80.4966 -87.4775
LeftHand  0.0709294 -7.01898 -0.306519
RightShoulder  0.829389 1.18242 10.5538
RightArm  -70.359 26.7933 6.08503
RightForeArm  35.4736 68.9683 26.4243
RightHand  -1.12789 8.11494 -10.0391
LeftUpLeg  3.14033 1.00891 2.01879
LeftLeg  -1.34942 10.5401 -0.570698
LeftFoot  -1.34498 0.211575 -2.3626
LeftToes  4.76866e-008 1.46233e-008 1.30548e-009
